<svg xmlns="http://www.w3.org/2000/svg" width="512" height="512" viewBox="0 0 512 512">
  <g fill="none" fill-rule="evenodd">
    <circle cx="256" cy="256" r="256" fill="#42C59E"/>
    <g fill="#FFFFFF" fill-rule="nonzero" transform="translate(113 113)">
      <rect width="40.088" height="38.721" x="123.135" y="123.674" transform="rotate(-18.518 143.18 143.035)"/>
      <rect width="40.088" height="38.721" x="123.135" y="123.674" transform="rotate(-18.518 143.18 143.035)"/>
      <path d="M273.7,103.638889 C244.316667,5.69444444 201.95,-17.0833333 104.005556,12.3 C6.06111111,41.6833333 -16.7166667,84.05 12.6666667,181.994444 C42.05,279.938889 84.4166667,302.716667 182.361111,273.333333 C280.305556,243.95 303.083333,201.583333 273.7,103.638889 Z M224.272222,167.188889 L205.822222,173.338889 L212.2,192.472222 C214.705556,200.216667 210.605556,208.644444 202.861111,211.15 C201.266667,211.605556 199.444444,212.061111 197.85,211.833333 C191.927778,211.605556 186.233333,207.733333 184.183333,201.811111 L177.805556,182.677778 L139.766667,195.433333 L146.144444,214.566667 C148.65,222.311111 144.55,230.738889 136.805556,233.244444 C135.211111,233.7 133.388889,234.155556 131.794444,233.927778 C125.872222,233.7 120.177778,229.827778 118.127778,223.905556 L111.75,204.772222 L93.3,210.922222 C91.7055556,211.377778 89.8833333,211.833333 88.2888889,211.605556 C82.3666667,211.377778 76.6722222,207.505556 74.6222222,201.583333 C72.1166667,193.838889 76.2166667,185.411111 83.9611111,182.905556 L102.411111,176.755556 L90.1111111,140.083333 L71.6611111,146.233333 C70.0666667,146.688889 68.2444444,147.144444 66.65,146.916667 C60.7277778,146.688889 55.0333333,142.816667 52.9833333,136.894444 C50.4777778,129.15 54.5777778,120.722222 62.3222222,118.216667 L80.7722222,112.066667 L74.3944444,92.9333333 C71.8888889,85.1888889 75.9888889,76.7611111 83.7333333,74.2555556 C91.4777778,71.75 99.9055556,75.85 102.411111,83.5944444 L108.788889,102.727778 L146.827778,89.9722222 L140.45,70.8388889 C137.944444,63.0944444 142.044444,54.6666667 149.788889,52.1611111 C157.533333,49.6555556 165.961111,53.7555556 168.466667,61.5 L174.844444,80.6333333 L193.294444,74.4833333 C201.038889,71.9777778 209.466667,76.0777778 211.972222,83.8222222 C214.477778,91.5666667 210.377778,99.9944444 202.633333,102.5 L184.183333,108.65 L196.483333,145.322222 L214.933333,139.172222 C222.677778,136.666667 231.105556,140.766667 233.611111,148.511111 C236.116667,156.255556 232.016667,164.683333 224.272222,167.188889 Z"/>
    </g>
  </g>
</svg>
