<svg xmlns="http://www.w3.org/2000/svg" width="512" height="512" viewBox="0 0 512 512">
  <g fill="#FFFFFF" transform="translate(16 8)">
    <rect width="68.542" height="66.205" x="209.536" y="211.457" transform="rotate(-18.518 243.807 244.56)"/>
    <rect width="68.542" height="66.205" x="209.536" y="211.457" transform="rotate(-18.518 243.807 244.56)"/>
    <path d="M466.96958,177.200758 C416.730245,9.73630536 344.292133,-29.2089161 176.827681,21.0304196 C9.36322844,71.2697552 -29.581993,143.707867 20.6573427,311.172319 C70.8966783,478.636772 143.33479,517.581993 310.799242,467.342657 C478.263695,417.103322 517.208916,344.66521 466.96958,177.200758 Z M382.45845,285.857925 L350.912821,296.373135 L361.817483,329.087121 C366.101457,342.328497 359.091317,356.738228 345.849942,361.022203 C343.123776,361.801107 340.008159,362.580012 337.281993,362.190559 C327.156235,361.801107 317.41993,355.18042 313.91486,345.054662 L303.010198,312.340676 L237.971678,334.15 L248.87634,366.863986 C253.160315,380.105361 246.150175,394.515093 232.9088,398.799068 C230.182634,399.577972 227.067016,400.356876 224.340851,399.967424 C214.215093,399.577972 204.478788,392.957284 200.973718,382.831527 L190.069056,350.117541 L158.523427,360.632751 C155.797261,361.411655 152.681643,362.190559 149.955478,361.801107 C139.82972,361.411655 130.093415,354.790967 126.588345,344.66521 C122.304371,331.423834 129.31451,317.014103 142.555886,312.730128 L174.101515,302.214918 L153.071096,239.513112 L121.525466,250.028322 C118.799301,250.807226 115.683683,251.586131 112.957517,251.196678 C102.83176,250.807226 93.0954545,244.186538 89.5903846,234.060781 C85.3064103,220.819406 92.3165501,206.409674 105.557925,202.125699 L137.103555,191.61049 L126.198893,158.896503 C121.914918,145.655128 128.925058,131.245396 142.166434,126.961422 C155.407809,122.677448 169.817541,129.687587 174.101515,142.928963 L185.006177,175.642949 L250.044697,153.833625 L239.140035,121.119639 C234.856061,107.878263 241.8662,93.4685315 255.107576,89.1845571 C268.348951,84.9005828 282.758683,91.9107226 287.042657,105.152098 L297.947319,137.866084 L329.492949,127.350874 C342.734324,123.0669 357.144056,130.07704 361.42803,143.318415 C365.712005,156.55979 358.701865,170.969522 345.46049,175.253497 L313.91486,185.768706 L334.94528,248.470513 L366.490909,237.955303 C379.732284,233.671329 394.142016,240.681469 398.425991,253.922844 C402.709965,267.164219 395.699825,281.573951 382.45845,285.857925 Z"/>
  </g>
</svg>
